# xmcd CD database file
#
# Track frame offsets:
#	183
#	14195
#	27225
#	48890
#	62065
#	74855
#	87688
#	97568
#	111310
#	122668
#	135518
#	148123
#	160028
#	171615
#	181978
#	192068
#	203248
#	213938
#	228485
#	237273
#	249870
#	263420
#	274670
#	287348
#	299180
#
# Disc length: 4142 seconds
#
# Revision: 2
# Processed by: cddbd v1.4b41PL1 Copyright (c) Steve Scherf et al.
# Submitted via: Feurio! 1.50.2ß - http://www.feurio.com
#
DISCID=78102c19,79102b19
DTITLE=Various Artist - 101% Soul - Disc 4 - Moments In Soul
DYEAR=1900
DGENRE=
TTITLE0=Jimmy Ruffin - What Becomes Of The Broken Hearted?
TTITLE1=Ben E King - Don't Play That Song
TTITLE2=Gloria Gaynor - Don't You Dare Call It Love
TTITLE3=Percy Sledge - When A Man Loves A Woman
TTITLE4=Dee Clark - How About That
TTITLE5=The Drifters - You Send Me
TTITLE6=Betty Everett - The Shoop Shoop Song (It's In His Kiss)
TTITLE7=Eddie Floyd - Knock On Wood
TTITLE8=Barbara Lewis - Make Me Your Baby
TTITLE9=Bob and Earl - Harlem Shuffle
TTITLE10=Mary Wells - My Guy
TTITLE11=The Shirelles - Will You Love Me Tomorrow
TTITLE12=Mel and Tim - Backfield In Motion
TTITLE13=The Chiffons - Sweet Talkin' Guy
TTITLE14=The Crystals - He's A Rebel
TTITLE15=Solomon Burke - If You Need Me
TTITLE16=Rufus Thomas - Walking The Dog
TTITLE17=Eddie Holman - Hey There Lonely Girl
TTITLE18=The Tams - What Kind Of Fool (Do You Think I Am)
TTITLE19=Dobie Gray - The 'In' Crowd
TTITLE20=Joe Simon - Power Of Love
TTITLE21=Jerry Butler - Only The Strong Survive
TTITLE22=Carla Thomas - B-A-B-Y
TTITLE23=Brook Benton - Think Twice
TTITLE24=Sam and Dave - Soul Man
EXTD=
EXTT0=
EXTT1=
EXTT2=
EXTT3=
EXTT4=
EXTT5=
EXTT6=
EXTT7=
EXTT8=
EXTT9=
EXTT10=
EXTT11=
EXTT12=
EXTT13=
EXTT14=
EXTT15=
EXTT16=
EXTT17=
EXTT18=
EXTT19=
EXTT20=
EXTT21=
EXTT22=
EXTT23=
EXTT24=
PLAYORDER=
